<?xml version="1.0" encoding="utf-8"?>
<!-- Generator: Adobe Illustrator 16.0.0, SVG Export Plug-In . SVG Version: 6.00 Build 0)  -->
<!DOCTYPE svg PUBLIC "-//W3C//DTD SVG 1.1//EN" "http://www.w3.org/Graphics/SVG/1.1/DTD/svg11.dtd">
<svg version="1.1" id="Layer_1" xmlns="http://www.w3.org/2000/svg" xmlns:xlink="http://www.w3.org/1999/xlink" x="0px" y="0px"
	 width="245.818px" height="45.379px" viewBox="0 0 245.818 45.379" enable-background="new 0 0 245.818 45.379"
	 xml:space="preserve">
<g>
	<polygon fill="#FFFFFF" points="199.412,17.703 187.692,17.703 187.692,13.578 200.567,13.578 200.567,2.203 172.192,2.203 
		172.192,21.851 199.412,21.851 	"/>
	<polygon fill="#FFFFFF" points="187.727,28.832 199.412,28.832 199.412,24.203 172.192,24.203 172.192,43.703 200.692,43.703 
		200.692,33.203 187.727,33.203 	"/>
	<path fill="#FFFFFF" d="M165.621,24.203h-33.929v19.5l15.125,0.019V32.828l7.375,10.875h16.856l-10.25-16.375
		C160.798,27.328,163.368,26.603,165.621,24.203z"/>
	<path fill="#FFFFFF" d="M168.942,15.328c0-9.25-6.5-13.125-16.875-13.125s-20.375,0-20.375,0v19.648h35.481
		C168.202,20.144,168.942,18.105,168.942,15.328z M149.283,20.524h-2.5v-6.708l2.606-0.042c0,0,3.625,0.231,3.625,3.481
		S149.283,20.524,149.283,20.524z"/>
	<polygon fill="#FFFFFF" points="115.67,3.532 119.276,30.733 122.238,21.922 127.594,21.851 125.681,2.203 109.499,2.203 
		103.817,20.399 97.772,2.203 81.817,2.203 79.85,21.851 109.765,21.851 	"/>
	<polygon fill="#FFFFFF" points="124.121,24.203 118.515,41.108 114.836,13.718 111.48,24.203 79.645,24.203 77.692,43.703 
		92.317,43.722 94.192,28.38 99.192,43.703 107.817,43.703 112.817,28.502 114.624,43.703 129.692,43.703 127.793,24.203 	"/>
	<path fill="#FFFFFF" d="M55.692,14.17c3.819,0,6.928,3.326,7.108,7.681h15.616C78.048,9.642,68.042,0,55.744,0
		S33.44,9.642,33.072,21.851h15.512C48.765,17.496,51.873,14.17,55.692,14.17z"/>
	<path fill="#FFFFFF" d="M62.67,24.203c-0.668,3.74-3.538,6.408-6.978,6.408s-6.309-2.668-6.978-6.408H33.1
		c0.708,11.893,10.574,21.177,22.645,21.177c12.071,0,21.937-9.284,22.645-21.177H62.67z"/>
	<path fill="#FFFFFF" d="M0,21.851h15.587c0.563-3.888,4.719-6.766,9.769-6.766c2.784,0,5.292,0.921,7.083,2.396V2.206
		C29.48,0.792,26.169,0,22.672,0C10.375,0,0.369,9.642,0,21.851z"/>
	<path fill="#FFFFFF" d="M15.638,24.203H0.027c0.708,11.893,10.574,21.177,22.645,21.177c3.497,0,6.808-0.792,9.766-2.206V28.307
		c-1.79,1.475-4.299,2.396-7.083,2.396C20.422,30.703,16.348,27.961,15.638,24.203z"/>
	<polygon fill="#FFFFFF" points="214.173,24.203 201.706,43.642 219.206,43.642 223.706,35.786 228.318,43.693 245.818,43.693 
		233.364,24.203 	"/>
	<polygon fill="#FFFFFF" points="233.349,21.851 245.818,2.265 228.318,2.265 223.744,10.036 219.206,2.286 201.706,2.286 
		214.161,21.851 	"/>
</g>
</svg>
