<?xml version="1.0" encoding="utf-8"?>
<!-- Generator: Adobe Illustrator 23.0.1, SVG Export Plug-In . SVG Version: 6.00 Build 0)  -->
<svg version="1.1"
	 id="svg982" xmlns:cc="http://creativecommons.org/ns#" xmlns:dc="http://purl.org/dc/elements/1.1/" xmlns:inkscape="http://www.inkscape.org/namespaces/inkscape" xmlns:rdf="http://www.w3.org/1999/02/22-rdf-syntax-ns#" xmlns:sodipodi="http://sodipodi.sourceforge.net/DTD/sodipodi-0.dtd" xmlns:svg="http://www.w3.org/2000/svg"
	 xmlns="http://www.w3.org/2000/svg" xmlns:xlink="http://www.w3.org/1999/xlink" x="0px" y="0px" width="1966.453px"
	 height="400px" viewBox="0 0 1966.453 400" enable-background="new 0 0 1966.453 400" xml:space="preserve">
<g>
	<g>
		<path fill="#0022AF" d="M544.734,193.278l-60.056-147.04h28.285l34.29,87.758l37.582-91.826l37.392,91.826l34.097-87.758h27.122
			l-59.862,147.04l-39.522-94.732L544.734,193.278z"/>
		<path fill="#0022AF" d="M812.639,187.663H785.13l-14.336-30.414h-60.249l-14.336,30.414h-27.702l72.065-147.04L812.639,187.663z
			 M720.036,137.097H761.3L740.57,93.314L720.036,137.097z"/>
		<path fill="#0022AF" d="M856.996,187.663H830.84V46.241h39.908c31.191,0,53.468,16.082,53.468,43.784
			c0,19.178-10.657,32.354-27.702,38.745l43.974,58.893h-30.414l-40.488-54.631h-12.593L856.996,187.663L856.996,187.663z
			 M856.996,112.105h13.756c16.082,0,26.929-7.944,26.929-22.084c0-14.336-10.847-22.277-26.929-22.277h-13.756V112.105z"/>
		<path fill="#0022AF" d="M1266.244,187.663h-26.156V46.241h39.908c31.191,0,53.468,16.082,53.468,43.784
			c0,19.178-10.657,32.354-27.702,38.745l43.974,58.893h-30.414l-40.488-54.631h-12.593L1266.244,187.663L1266.244,187.663z
			 M1266.244,112.105H1280c16.082,0,26.929-7.944,26.929-22.084c0-14.336-10.847-22.277-26.929-22.277h-13.756V112.105z"/>
		<path fill="#0022AF" d="M1062.454,46.241h25.572v146.844l-99.577-95.895v90.47h-25.572V40.812l99.577,95.895V46.241z"/>
		<path fill="#0022AF" d="M1122.313,46.241h87.178v21.697h-61.605v36.616h56.763v21.89h-56.763v39.522h61.995v21.697h-87.564
			L1122.313,46.241L1122.313,46.241z"/>
		<path fill="#0022AF" d="M1418.883,46.241h40.685c31.578,0,48.043,14.722,48.043,37.389c0,14.529-8.911,24.796-19.758,29.448
			c16.082,4.262,28.478,16.465,28.478,34.29c0,24.989-19.371,40.298-49.982,40.298h-47.463L1418.883,46.241L1418.883,46.241z
			 M1458.018,106.1c14.722,0,24.023-6.588,24.023-18.988c0-12.593-9.297-19.178-24.023-19.178h-13.563v38.162L1458.018,106.1
			L1458.018,106.1z M1464.796,165.966c14.919,0,24.993-7.751,24.993-20.341c0-12.4-10.074-20.147-24.993-20.147h-20.341v40.488
			H1464.796z"/>
		<path fill="#0022AF" d="M1569.969,187.663h-26.156V46.241h39.908c31.191,0,53.468,16.082,53.468,43.784
			c0,19.178-10.657,32.354-27.702,38.745l43.974,58.893h-30.414l-40.488-54.631h-12.593L1569.969,187.663L1569.969,187.663z
			 M1569.969,112.105h13.756c16.082,0,26.929-7.944,26.929-22.084c0-14.336-10.847-22.277-26.929-22.277h-13.756V112.105z"/>
		<path fill="#0022AF" d="M1806.244,116.95c0,40.298-32.161,73.035-72.262,73.035c-40.102,0-72.259-32.74-72.259-73.035
			s32.161-73.035,72.259-73.035C1774.083,43.915,1806.244,76.652,1806.244,116.95z M1687.872,116.95
			c0,27.898,20.534,48.819,46.106,48.819c25.573,0,46.11-20.924,46.11-48.819s-20.534-48.819-46.11-48.819
			C1708.409,68.131,1687.872,89.052,1687.872,116.95z"/>
		<path fill="#0022AF" d="M1867.623,167.708c14.336,0,24.409-6.391,24.409-18.015c0-9.104-6.005-13.176-14.919-17.628
			l-23.636-11.237c-15.305-7.364-28.285-16.465-28.285-36.229c0-24.603,20.144-40.685,46.496-40.685
			c16.082,0,30.414,6.781,38.162,13.946v27.122c-10.847-10.847-24.993-18.791-39.132-18.791c-11.817,0-20.731,5.812-20.731,16.272
			c0,7.751,5.618,11.817,13.366,15.692l22.087,10.267c20.534,9.494,31.384,19.178,31.384,38.939
			c0,26.346-21.89,42.621-49.789,42.621c-18.015,0-33.9-6.778-43.204-14.143v-26.732
			C1836.239,159.181,1851.544,167.708,1867.623,167.708z"/>
		<path fill="#0022AF" d="M1966.453,172.547c0,9.297-7.364,16.465-16.465,16.465h-0.39c-9.107,0-16.272-7.168-16.272-16.465
			c0-9.107,7.168-16.272,16.272-16.272h0.39C1959.092,156.275,1966.453,163.446,1966.453,172.547z"/>
		<path fill="#0022AF" d="M1394.25,376.921h-26.156V235.499h39.908c31.191,0,53.468,16.082,53.468,43.784
			c0,19.178-10.657,32.354-27.702,38.745l43.974,58.893h-30.414l-40.488-54.627h-12.593L1394.25,376.921L1394.25,376.921z
			 M1394.25,301.366h13.756c16.082,0,26.929-7.944,26.929-22.084c0-14.336-10.847-22.277-26.929-22.277h-13.756V301.366z"/>
		<path fill="#0022AF" d="M1248.96,235.499h87.178v21.697h-61.605v36.616h56.763v21.89h-56.763v39.522h61.995v21.697h-87.564
			L1248.96,235.499L1248.96,235.499z"/>
		<path fill="#0022AF" d="M1084.629,306.211c0,40.298-32.161,73.035-72.262,73.035c-40.102,0-72.259-32.74-72.259-73.035
			s32.161-73.035,72.259-73.035C1052.468,233.176,1084.629,265.916,1084.629,306.211z M966.257,306.211
			c0,27.898,20.537,48.819,46.11,48.819c25.572,0,46.11-20.924,46.11-48.819c0-27.895-20.534-48.819-46.11-48.819
			C986.798,257.392,966.257,278.316,966.257,306.211z"/>
		<path fill="#0022AF" d="M545.956,235.499c40.298,0,72.649,30.414,72.649,70.713c0,40.295-32.354,70.712-72.649,70.712h-43.59
			V235.499H545.956L545.956,235.499z M528.524,257.199v98.028h15.692c28.478,0,48.239-22.087,48.239-49.012
			s-19.767-49.016-48.049-49.016H528.524z"/>
		<path fill="#0022AF" d="M671.479,235.499v141.422h-26.156V235.499H671.479z"/>
		<path fill="#0022AF" d="M741.848,356.97c14.336,0,24.413-6.391,24.413-18.015c0-9.107-6.005-13.176-14.919-17.628l-23.636-11.237
			c-15.305-7.361-28.285-16.465-28.285-36.226c0-24.606,20.147-40.685,46.493-40.685c16.082,0,30.414,6.778,38.162,13.946v27.122
			c-10.85-10.847-24.993-18.791-39.135-18.791c-11.817,0-20.731,5.812-20.731,16.275c0,7.748,5.618,11.817,13.366,15.692
			l22.087,10.27c20.534,9.494,31.381,19.178,31.381,38.939c0,26.346-21.89,42.621-49.785,42.621
			c-18.015,0-33.903-6.781-43.204-14.143v-26.732C710.46,348.442,725.766,356.97,741.848,356.97z"/>
		<path fill="#0022AF" d="M919.633,339.145v30.221c-10.46,6.391-23.053,9.88-36.616,9.88c-40.298,0-72.842-32.74-72.842-73.035
			c0-40.298,32.547-73.035,72.842-73.035c13.559,0,26.156,3.486,36.616,9.88v30.221c-8.331-9.297-21.117-15.109-36.033-15.109
			c-26.736,0-47.269,20.924-47.269,48.046c0,27.122,20.534,48.043,47.269,48.043C898.516,354.257,911.302,348.442,919.633,339.145z"
			/>
		<path fill="#0022AF" d="M1086.938,235.499h28.865l43.974,94.732l43.59-94.732h27.702l-72.065,147.04L1086.938,235.499z"/>
		<path fill="#0022AF" d="M1525.566,376.921v-63.541l-52.891-77.88h29.641l36.229,53.664l36.616-53.664h29.448l-52.694,77.88v63.541
			C1551.915,376.921,1525.566,376.921,1525.566,376.921z"/>
	</g>
	<g>
		
			<linearGradient id="SVGID_1_" gradientUnits="userSpaceOnUse" x1="-217.1602" y1="532.0808" x2="144.0388" y2="532.0808" gradientTransform="matrix(1 0 0 1 243.65 -333.4158)">
			<stop  offset="0" style="stop-color:#4047FF"/>
			<stop  offset="1" style="stop-color:#04006C"/>
		</linearGradient>
		<path fill="url(#SVGID_1_)" d="M387.689,130.5c-2.749,18.817-11.6,80.301-56.57,140.645
			c-45.74,62.139-105.884,92.288-124.029,101.563c-18.146-9.278-78.29-39.423-124.029-101.563
			C38.09,210.798,29.242,149.31,26.49,130.5l27.322-14.654V95.518l27.076-14.667V60.537c37.458-17.864,78.726-29.609,126.198-35.915
			c47.473,6.306,88.74,18.054,126.198,35.915v20.314l27.076,14.667v20.328L387.689,130.5z"/>
		<path fill="#FFC200" d="M384.826,101.245V80.986l-27.076-14.667V45.133l-13.89-6.614C304.39,19.699,260.747,7.132,210.411,0.446
			L207.122,0l-3.289,0.446c-50.339,6.686-93.979,19.256-133.445,38.074l-13.89,6.614v21.186L29.419,80.986v20.259L0,117.025
			l2.326,16.816c7.794,56.423,28.367,107.486,61.114,151.8c33.097,44.78,77.776,81.415,132.793,108.911L207.122,400l10.889-5.448
			c55.017-27.495,99.695-64.131,132.793-108.911c32.747-44.314,53.32-95.378,61.114-151.8l2.326-16.816L384.826,101.245z
			 M387.689,130.5c-2.749,18.817-11.6,80.301-56.57,140.645c-45.74,62.139-105.884,92.288-124.029,101.563
			c-18.146-9.278-78.29-39.423-124.029-101.563C38.09,210.798,29.242,149.31,26.49,130.5l27.322-14.654V95.518l27.076-14.667V60.537
			c37.458-17.864,78.726-29.609,126.198-35.915c47.473,6.306,88.74,18.054,126.198,35.915v20.314l27.076,14.667v20.328
			L387.689,130.5z"/>
		<path fill="#FFC200" d="M166.621,73.51l1.258,165.268l-1.166,0.681c-17.497-44.219-27.925-99.4-31.214-154.742
			c-8.59,3.862-17.704,8.642-27.047,14.559c3.774,50.208,12.354,94.136,27.774,135.836l-8.727,5.055
			c-23.122-32.38-38.228-71.764-48.603-118.477c-7.145,6.418-14.234,13.605-21.156,21.661c13.556,56.069,34.893,98.555,66.08,133.14
			l24.043-14.372c11.777,24.541,28.324,48.757,46.503,68.115V68.613C185.111,69.514,175.957,71.109,166.621,73.51z"/>
		<path fill="#FFC200" d="M321.379,158.706c9.799-10.847,11.882-18.739,11.882-28.288c0-13.514-11.165-25.54-27.404-35.872
			c-9.808-6.244-24.822-13.802-46.719-19.905c-12.6-3.384-25.736-5.441-39.253-6.028v261.628
			c54.991-28.311,120.364-105.884,120.694-145.353C340.681,172.816,334.313,164.93,321.379,158.706z M246.925,99.898
			c13.54,0,57.343,13.851,57.343,31.342c0,6.303-5.566,15.342-22.893,24.439l-34.45,18.477V99.898z M281.058,244.986
			c-7.738,8.924-20.413,22.529-34.133,33.13V203.05c0,0,49.703-27.974,51.528-29.166c14.88,3.771,14.123,14.713,14.123,15.846
			C312.563,203.515,298.473,224.855,281.058,244.986z"/>
	</g>
</g>
</svg>
